<mxfile host="app.diagrams.net" modified="2021-05-01T16:36:56.913Z" agent="5.0 (Windows NT 10.0; Win64; x64) AppleWebKit/537.36 (KHTML, like Gecko) Chrome/90.0.4430.93 Safari/537.36" etag="Zo__PpQ7a2HPujR5ZmV7" version="14.6.9" type="github">
  <diagram id="ZcLcjxNScY6plQ6BIfUa" name="Page-1">
    <mxGraphModel dx="1038" dy="491" grid="1" gridSize="10" guides="1" tooltips="1" connect="1" arrows="1" fold="1" page="1" pageScale="1" pageWidth="827" pageHeight="1169" math="0" shadow="0">
      <root>
        <mxCell id="0" />
        <mxCell id="1" parent="0" />
        <mxCell id="v3-TjeCMkZKLJLVGQAQJ-3" value="" style="edgeStyle=orthogonalEdgeStyle;rounded=0;orthogonalLoop=1;jettySize=auto;html=1;" edge="1" parent="1" source="v3-TjeCMkZKLJLVGQAQJ-1" target="v3-TjeCMkZKLJLVGQAQJ-2">
          <mxGeometry relative="1" as="geometry" />
        </mxCell>
        <mxCell id="v3-TjeCMkZKLJLVGQAQJ-1" value="contstructor&lt;br&gt;&lt;span style=&quot;color: rgb(111 , 66 , 193) ; font-family: , &amp;#34;consolas&amp;#34; , &amp;#34;liberation mono&amp;#34; , &amp;#34;menlo&amp;#34; , monospace ; background-color: rgb(255 , 255 , 255)&quot;&gt;MultipleBinaryFlag&lt;/span&gt;" style="ellipse;whiteSpace=wrap;html=1;aspect=fixed;" vertex="1" parent="1">
          <mxGeometry x="374" y="10" width="80" height="80" as="geometry" />
        </mxCell>
        <mxCell id="v3-TjeCMkZKLJLVGQAQJ-5" value="else" style="edgeStyle=orthogonalEdgeStyle;rounded=0;orthogonalLoop=1;jettySize=auto;html=1;" edge="1" parent="1">
          <mxGeometry relative="1" as="geometry">
            <mxPoint x="414" y="201" as="sourcePoint" />
            <mxPoint x="414" y="231" as="targetPoint" />
          </mxGeometry>
        </mxCell>
        <mxCell id="v3-TjeCMkZKLJLVGQAQJ-2" value="&lt;span class=&quot;pl-k&quot; style=&quot;box-sizing: border-box ; font-family: , &amp;#34;consolas&amp;#34; , &amp;#34;liberation mono&amp;#34; , &amp;#34;menlo&amp;#34; , monospace ; background-color: rgb(255 , 255 , 255)&quot;&gt;if&lt;/span&gt;&lt;span style=&quot;color: rgb(36 , 41 , 46) ; font-family: , &amp;#34;consolas&amp;#34; , &amp;#34;liberation mono&amp;#34; , &amp;#34;menlo&amp;#34; , monospace ; background-color: rgb(255 , 255 , 255)&quot;&gt; (&lt;/span&gt;&lt;span class=&quot;pl-smi&quot; style=&quot;box-sizing: border-box ; color: rgb(36 , 41 , 46) ; font-family: , &amp;#34;consolas&amp;#34; , &amp;#34;liberation mono&amp;#34; , &amp;#34;menlo&amp;#34; , monospace ; background-color: rgb(255 , 255 , 255)&quot;&gt;length&lt;/span&gt;&lt;span style=&quot;color: rgb(36 , 41 , 46) ; font-family: , &amp;#34;consolas&amp;#34; , &amp;#34;liberation mono&amp;#34; , &amp;#34;menlo&amp;#34; , monospace ; background-color: rgb(255 , 255 , 255)&quot;&gt; &lt;/span&gt;&lt;span class=&quot;pl-k&quot; style=&quot;box-sizing: border-box ; font-family: , &amp;#34;consolas&amp;#34; , &amp;#34;liberation mono&amp;#34; , &amp;#34;menlo&amp;#34; , monospace ; background-color: rgb(255 , 255 , 255)&quot;&gt;&amp;lt;&lt;/span&gt;&lt;span style=&quot;color: rgb(36 , 41 , 46) ; font-family: , &amp;#34;consolas&amp;#34; , &amp;#34;liberation mono&amp;#34; , &amp;#34;menlo&amp;#34; , monospace ; background-color: rgb(255 , 255 , 255)&quot;&gt; &lt;/span&gt;&lt;span class=&quot;pl-c1&quot; style=&quot;box-sizing: border-box ; font-family: , &amp;#34;consolas&amp;#34; , &amp;#34;liberation mono&amp;#34; , &amp;#34;menlo&amp;#34; , monospace ; background-color: rgb(255 , 255 , 255)&quot;&gt;33&lt;/span&gt;&lt;span style=&quot;color: rgb(36 , 41 , 46) ; font-family: , &amp;#34;consolas&amp;#34; , &amp;#34;liberation mono&amp;#34; , &amp;#34;menlo&amp;#34; , monospace ; background-color: rgb(255 , 255 , 255)&quot;&gt;)&lt;/span&gt;" style="ellipse;whiteSpace=wrap;html=1;aspect=fixed;" vertex="1" parent="1">
          <mxGeometry x="374" y="120" width="80" height="80" as="geometry" />
        </mxCell>
        <mxCell id="v3-TjeCMkZKLJLVGQAQJ-7" value="else" style="edgeStyle=orthogonalEdgeStyle;rounded=0;orthogonalLoop=1;jettySize=auto;html=1;" edge="1" parent="1" source="v3-TjeCMkZKLJLVGQAQJ-4" target="v3-TjeCMkZKLJLVGQAQJ-6">
          <mxGeometry relative="1" as="geometry" />
        </mxCell>
        <mxCell id="v3-TjeCMkZKLJLVGQAQJ-4" value="&lt;span class=&quot;pl-k&quot; style=&quot;box-sizing: border-box ; font-family: , &amp;#34;consolas&amp;#34; , &amp;#34;liberation mono&amp;#34; , &amp;#34;menlo&amp;#34; , monospace ; background-color: rgb(255 , 255 , 255)&quot;&gt;if&lt;/span&gt;&lt;span style=&quot;color: rgb(36 , 41 , 46) ; font-family: , &amp;#34;consolas&amp;#34; , &amp;#34;liberation mono&amp;#34; , &amp;#34;menlo&amp;#34; , monospace ; background-color: rgb(255 , 255 , 255)&quot;&gt; (&lt;/span&gt;&lt;span class=&quot;pl-smi&quot; style=&quot;box-sizing: border-box ; color: rgb(36 , 41 , 46) ; font-family: , &amp;#34;consolas&amp;#34; , &amp;#34;liberation mono&amp;#34; , &amp;#34;menlo&amp;#34; , monospace ; background-color: rgb(255 , 255 , 255)&quot;&gt;length&lt;/span&gt;&lt;span style=&quot;color: rgb(36 , 41 , 46) ; font-family: , &amp;#34;consolas&amp;#34; , &amp;#34;liberation mono&amp;#34; , &amp;#34;menlo&amp;#34; , monospace ; background-color: rgb(255 , 255 , 255)&quot;&gt; &lt;/span&gt;&lt;span class=&quot;pl-k&quot; style=&quot;box-sizing: border-box ; font-family: , &amp;#34;consolas&amp;#34; , &amp;#34;liberation mono&amp;#34; , &amp;#34;menlo&amp;#34; , monospace ; background-color: rgb(255 , 255 , 255)&quot;&gt;&amp;lt;&lt;/span&gt;&lt;span style=&quot;color: rgb(36 , 41 , 46) ; font-family: , &amp;#34;consolas&amp;#34; , &amp;#34;liberation mono&amp;#34; , &amp;#34;menlo&amp;#34; , monospace ; background-color: rgb(255 , 255 , 255)&quot;&gt; &lt;/span&gt;&lt;span class=&quot;pl-c1&quot; style=&quot;box-sizing: border-box ; font-family: , &amp;#34;consolas&amp;#34; , &amp;#34;liberation mono&amp;#34; , &amp;#34;menlo&amp;#34; , monospace ; background-color: rgb(255 , 255 , 255)&quot;&gt;65&lt;/span&gt;&lt;span style=&quot;color: rgb(36 , 41 , 46) ; font-family: , &amp;#34;consolas&amp;#34; , &amp;#34;liberation mono&amp;#34; , &amp;#34;menlo&amp;#34; , monospace ; background-color: rgb(255 , 255 , 255)&quot;&gt;)&lt;/span&gt;" style="ellipse;whiteSpace=wrap;html=1;aspect=fixed;" vertex="1" parent="1">
          <mxGeometry x="374" y="230" width="80" height="80" as="geometry" />
        </mxCell>
        <mxCell id="v3-TjeCMkZKLJLVGQAQJ-6" value="contstructor&lt;br&gt;&lt;span style=&quot;color: rgb(111 , 66 , 193) ; font-family: , &amp;#34;consolas&amp;#34; , &amp;#34;liberation mono&amp;#34; , &amp;#34;menlo&amp;#34; , monospace ; background-color: rgb(255 , 255 , 255)&quot;&gt;MultipleBinaryFlag&lt;/span&gt;" style="ellipse;whiteSpace=wrap;html=1;aspect=fixed;" vertex="1" parent="1">
          <mxGeometry x="374" y="340" width="80" height="80" as="geometry" />
        </mxCell>
      </root>
    </mxGraphModel>
  </diagram>
</mxfile>
